# xmcd
#
# Track frame offsets:
#	150
#	13885
#	28802
#	41382
#	54197
#	63550
#	76260
#	89572
#	102542
#	112660
#	125112
#	137230
#	147035
#	160280
#	173812
#	188685
#	198590
#	209852
#	222320
#	236907
#	248965
#	263755
#	278182
#	292335
#
# Disc length: 4070 seconds
#
# Revision: 0
# Processed by: cddbd v1.4PL0 Copyright (c) Steve Scherf et al.
# Submitted via: dBpowerAMP V4.0
#
DISCID=790fe418
DTITLE=disque2 - DECCA
DYEAR=2001
DGENRE=Chanson
TTITLE0=tico tico  Tohama
TTITLE1=amour et métro  Félix Paquet
TTITLE2=Brésil  Léo Marjane
TTITLE3=la danseuse est créole  Yvette Giraud
TTITLE4=south america take it away  Los Gamagueyanos
TTITLE5=dis-moi oui, dis-moi non  Tohama
TTITLE6=Jaseph est au Brésil  Félix Paquet
TTITLE7=boléro d'amour Lucien Jeunesse
TTITLE8=amiga bonita  Zappy Max
TTITLE9=cuando le gusta  Fres Adison
TTITLE10=loin des sambas  Léo Marjane
TTITLE11=elle vendait des glaces à la vanille  Félix Paquet
TTITLE12=sans vous   Jacques Pills
TTITLE13=youpi youp la la  Tohama
TTITLE14=le tueur affamé  M.Chevalier
TTITLE15=Oh! monsieur Plume  Adrien Adrius
TTITLE16=Emile, qu'est-ce que tu fais ?  Fernandel
TTITLE17=le petit chaperon  Tohama
TTITLE18=Pervenche  Paul Peri
TTITLE19=un air d'accordéon  Suzy Solidor
TTITLE20=une pipe sur le piano  M.Chevalier
TTITLE21=Monsieur X  Edith Piaf
TTITLE22=Antoine et Antoinette  Félix Paquet
TTITLE23=ce voyageur  Jean Tranchant
EXTD=
EXTT0=
EXTT1=
EXTT2=
EXTT3=
EXTT4=
EXTT5=
EXTT6=
EXTT7=
EXTT8=
EXTT9=
EXTT10=
EXTT11=
EXTT12=
EXTT13=
EXTT14=
EXTT15=
EXTT16=
EXTT17=
EXTT18=
EXTT19=
EXTT20=
EXTT21=
EXTT22=
EXTT23=
PLAYORDER=
